<svg width="70" height="70" viewBox="0 0 70 70" fill="none" xmlns="http://www.w3.org/2000/svg">
<path d="M57.5203 26.46C56.4507 26.5825 55.5582 27.2344 55.0988 28.1422L55.09 28.1597C54.4338 29.0653 53.9416 30.1372 53.6791 31.2944L53.6682 31.3534C53.5478 31.9156 53.48 32.5587 53.48 33.2194C53.48 33.2522 53.48 33.2828 53.48 33.3156V33.3112C53.4932 34.1928 53.6682 35.0306 53.981 35.7984L53.9635 35.7525C54.366 36.7959 54.9041 37.3625 55.5472 37.4959C55.6172 37.5025 55.7003 37.5069 55.7835 37.5069C56.5535 37.5069 57.2447 37.17 57.7172 36.6384L57.7194 36.6362C58.776 35.5994 59.5066 34.2344 59.7516 32.7075L59.756 32.6681C59.8719 32.0753 59.9419 31.3884 59.9463 30.6884V30.684C59.9353 29.8025 59.7582 28.9647 59.4453 28.1969L59.4628 28.2428C59.0582 27.1994 58.5222 26.635 57.8769 26.5015C57.7697 26.4797 57.6472 26.4644 57.5203 26.4622V26.46ZM40.7028 26.46C39.6332 26.5825 38.7407 27.2344 38.2813 28.1422L38.2725 28.1597C37.6163 29.0653 37.1241 30.1372 36.8616 31.2944L36.8507 31.3534C36.7303 31.909 36.6604 32.5478 36.6604 33.2019C36.6604 33.239 36.6604 33.2784 36.6604 33.3156V33.309C36.6735 34.1906 36.8485 35.0284 37.1613 35.7962L37.1438 35.7503C37.5463 36.7937 38.0822 37.3603 38.7275 37.4937C38.7975 37.5003 38.8807 37.5047 38.9638 37.5047C39.7338 37.5047 40.425 37.1678 40.8975 36.6362L40.8997 36.634C41.9563 35.5972 42.6869 34.2322 42.9319 32.7053L42.9363 32.6659C43.0566 32.1081 43.1266 31.465 43.1266 30.8065C43.1266 30.7628 43.1266 30.719 43.1266 30.6753V30.6819C43.1157 29.8003 42.9407 28.9625 42.63 28.1947L42.6453 28.2406C42.2407 27.1972 41.7047 26.6328 41.0594 26.4994C40.9522 26.4775 40.8297 26.4622 40.7028 26.4622V26.46ZM57.3957 21.9625C57.9119 21.9669 58.4107 22.0259 58.8919 22.1353L58.846 22.1265C60.7075 22.4809 62.2475 23.6315 63.1225 25.2022L63.1378 25.2328C63.9494 26.659 64.4285 28.3675 64.4285 30.1853C64.4285 30.3012 64.4263 30.4172 64.4219 30.5331V30.5156C64.4219 30.555 64.4219 30.5987 64.4219 30.6447C64.4219 33.4031 63.6432 35.98 62.2957 38.1675L62.3307 38.1062C61.1603 40.4665 58.7891 42.0744 56.0372 42.129H56.0307C55.5144 42.1247 55.0157 42.0656 54.5344 41.9584L54.5825 41.9672C52.7188 41.6128 51.1788 40.46 50.306 38.8872L50.2907 38.8565C49.4769 37.4106 49 35.6803 49 33.8406C49 33.7378 49.0022 33.6328 49.0044 33.53V33.5453C49.0044 33.5037 49.0044 33.4556 49.0044 33.4053C49.0044 30.6578 49.7832 28.094 51.1307 25.9197L51.0957 25.9809C52.2791 23.6294 54.6438 22.0281 57.3891 21.9581H57.3978L57.3957 21.9625ZM40.5803 21.9625C41.0966 21.9669 41.5953 22.0259 42.0766 22.1353L42.0307 22.1265C43.89 22.4875 45.4278 23.6359 46.3072 25.2022L46.3225 25.2328C47.1341 26.659 47.6132 28.3653 47.6132 30.1853C47.6132 30.3012 47.611 30.4172 47.6066 30.5331V30.5156C47.6066 30.555 47.6066 30.5987 47.6066 30.6447C47.6066 33.4031 46.8278 35.98 45.4782 38.1675L45.5132 38.1062C44.3428 40.4665 41.9716 42.0744 39.2197 42.129H39.2132C38.6969 42.1247 38.1982 42.0656 37.7169 41.9584L37.765 41.9672C35.9013 41.6128 34.3613 40.46 33.4885 38.8872L33.4732 38.8565C32.6594 37.4106 32.1803 35.6803 32.1803 33.8406C32.1803 33.7378 32.1825 33.6328 32.1847 33.53V33.5453C32.1847 33.5037 32.1847 33.4556 32.1847 33.4075C32.1847 30.66 32.9635 28.0962 34.3132 25.9219L34.2782 25.9831C35.4616 23.6315 37.8263 22.0303 40.5716 21.9603H40.5803V21.9625ZM30.3713 19.0575C30.9313 19.0684 31.441 19.274 31.8369 19.6065L31.8325 19.6044C32.305 19.9631 32.6178 20.5078 32.6638 21.129V21.1356C32.6682 21.1925 32.6703 21.2559 32.6703 21.3215C32.6703 21.724 32.5675 22.1025 32.3882 22.4306L32.3947 22.4175C31.1107 25.2415 30.1919 28.5162 29.8091 31.9528L29.796 32.0994C29.3038 34.7287 29.0216 37.754 29.0216 40.845C29.0216 41.3634 29.0303 41.8819 29.0457 42.3959L29.0435 42.3194C29.0544 42.42 29.061 42.5381 29.061 42.6562C29.061 43.179 28.9341 43.6712 28.7132 44.1044L28.7219 44.0869C28.4528 44.6272 27.9257 45.0034 27.3066 45.0515H27.3C27.2913 45.0515 27.2803 45.0515 27.2694 45.0515C26.4294 45.0515 25.6791 44.6687 25.1847 44.0672L25.1803 44.0628C22.3935 40.9194 20.3307 37.0694 19.2894 32.819L19.2522 32.6375C17.9426 35.1998 16.6549 37.7737 15.3891 40.3594C13.8097 43.3934 12.4666 44.9465 11.34 45.0275C10.616 45.0822 10.0013 44.4653 9.46098 43.1769C7.56004 37.3734 6.0091 30.485 5.09691 23.3997L5.03566 22.8178C5.01598 22.7019 5.00504 22.5684 5.00504 22.4328C5.00504 21.9034 5.17785 21.4112 5.47098 21.0153L5.4666 21.0219C5.86254 20.5187 6.47066 20.195 7.15535 20.1906C7.2691 20.1665 7.39816 20.1534 7.52941 20.1534C8.61223 20.1534 9.48941 21.0306 9.48941 22.1134C9.48941 22.1156 9.48941 22.1178 9.48941 22.12C10.3207 27.7265 11.2329 32.4756 12.1975 36.3628L18.071 25.1825C18.4013 24.3294 19.156 23.7103 20.0682 23.5747L20.0813 23.5725C21.2604 23.4915 21.9844 24.2419 22.2797 25.8256C22.9119 29.319 23.7935 32.399 24.9463 35.3434L24.8282 35C25.1104 29.6034 26.3857 24.57 28.4747 19.9894L28.3697 20.2475C28.6957 19.5715 29.3585 19.1056 30.1372 19.0684H30.1416C30.2174 19.0611 30.294 19.0575 30.3713 19.0575ZM8.2841 15.4744C4.92191 15.4765 2.19629 18.2022 2.19629 21.5644C2.19629 21.5731 2.19629 21.5819 2.19629 21.5906V41.9737C2.19629 45.349 4.93285 48.09 8.31035 48.09H33.6066L45.1675 54.5278L42.5382 48.09H61.6897C61.6897 48.09 61.6919 48.09 61.6941 48.09C65.0694 48.09 67.806 45.3534 67.806 41.9781C67.806 41.9759 67.806 41.9759 67.806 41.9737V21.5884C67.806 21.5862 67.806 21.5862 67.806 21.584C67.806 18.2087 65.0694 15.4722 61.6941 15.4722C61.6919 15.4722 61.6919 15.4722 61.6897 15.4722L8.2841 15.4744Z" fill="white"/>
</svg>
