<svg width="47" height="50" viewBox="0 0 47 50" fill="none" xmlns="http://www.w3.org/2000/svg">
<path d="M46.1788 0.0488281L41.9251 45.099L23.4956 49.951L5.0658 45.099L0.812988 0.0488281H46.1788ZM37.6074 9.20908H23.479H9.10039L9.78803 14.6493H23.479H24.2481L23.479 14.9623L10.2884 20.334L10.7259 25.6517L23.479 25.6921L30.3143 25.7133L29.8768 32.8037L23.4789 34.5649V34.5594L23.4265 34.5736L17.2478 33.0485L16.8728 28.6472H16.8524H11.1213H11.1011L11.8513 37.1439L23.4791 40.5062V40.5001L23.5001 40.5062L35.0656 37.2052L36.5659 20.334H23.4791H23.4469L23.4791 20.3203L37.0453 14.6493L37.6074 9.20908Z" fill="white"/>
</svg>
