<svg width="56" height="56" viewBox="0 0 56 56" fill="none" xmlns="http://www.w3.org/2000/svg">
<path d="M27.5333 7.46655H20.3C16.3051 7.46655 13.0667 10.6006 13.0667 14.4666C13.0667 18.3325 16.3051 21.4666 20.3 21.4666M27.5333 7.46655V21.4666M27.5333 7.46655H34.7667C38.7616 7.46655 42 10.6006 42 14.4666C42 18.3325 38.7616 21.4666 34.7667 21.4666M20.3 21.4666H27.5333M20.3 21.4666C16.3051 21.4666 13.0667 24.6005 13.0667 28.4666C13.0667 32.3327 16.3051 35.4666 20.3 35.4666M27.5333 21.4666H34.7667M27.5333 21.4666V35.4666M34.7667 21.4666C38.7616 21.4666 42 24.6005 42 28.4666C42 32.3327 38.7616 35.4666 34.7667 35.4666C30.7717 35.4666 27.5333 32.3327 27.5333 28.4666C27.5333 24.6005 30.7717 21.4666 34.7667 21.4666ZM27.5333 35.4666H20.3M27.5333 35.4666V42.4666C27.5333 46.3327 24.295 49.4666 20.3 49.4666C16.3051 49.4666 13.0667 46.3327 13.0667 42.4666C13.0667 38.6005 16.3051 35.4666 20.3 35.4666" stroke="white" stroke-width="5" stroke-linecap="round" stroke-linejoin="round"/>
</svg>
