<svg width="55" height="54" viewBox="0 0 55 54" fill="none" xmlns="http://www.w3.org/2000/svg">
<path fill-rule="evenodd" clip-rule="evenodd" d="M31.1152 6.49009C29.1187 4.52973 25.8813 4.52973 23.8847 6.49009L22.1679 8.17567L26.1758 12.1106C26.5981 11.9997 27.0419 11.9405 27.5 11.9405C30.3238 11.9405 32.6128 14.188 32.6128 16.9603C32.6128 17.41 32.5524 17.8459 32.4397 18.2606L37.6795 23.405C38.1018 23.2943 38.5456 23.2351 39.0037 23.2351C41.8275 23.2351 44.1165 25.4825 44.1165 28.2549C44.1165 31.0274 41.8275 33.2747 39.0037 33.2747C36.1799 33.2747 33.8909 31.0274 33.8909 28.2549C33.8909 27.8052 33.9513 27.3694 34.064 26.9548L30.0564 23.0198V35.2014C31.5846 36.0693 32.6128 37.6914 32.6128 39.5495C32.6128 42.322 30.3238 44.5693 27.5 44.5693C24.6762 44.5693 22.3872 42.322 22.3872 39.5495C22.3872 37.6914 23.4154 36.0693 24.9436 35.2014V21.3086C23.4154 20.4407 22.3872 18.8184 22.3872 16.9603C22.3872 16.5107 22.4475 16.0748 22.5603 15.6601L18.5526 11.7252L6.61028 23.4505C4.61361 25.4107 4.61361 28.5893 6.61028 30.5495L23.8847 47.5099C25.8813 49.4702 29.1187 49.4702 31.1152 47.5099L48.3898 30.5495C50.3863 28.5893 50.3863 25.4107 48.3898 23.4505L31.1152 6.49009ZM20.2694 2.94053C24.2628 -0.980186 30.7371 -0.980175 34.7305 2.94055L52.005 19.9009C55.9983 23.8217 55.9983 30.1783 52.005 34.099L34.7305 51.0595C30.7371 54.9802 24.2628 54.9802 20.2694 51.0595L2.99498 34.099C-0.998337 30.1783 -0.998327 23.8217 2.99501 19.9009L20.2694 2.94053Z" fill="white"/>
</svg>
