<svg width="51" height="50" viewBox="0 0 51 50" fill="none" xmlns="http://www.w3.org/2000/svg">
<path fill-rule="evenodd" clip-rule="evenodd" d="M-0.0216401 0.0585938C-0.0783987 0.0666749 -0.0742165 0.133564 -0.0701338 0.20055C-0.0701338 16.72 -0.0701338 33.2369 -0.0701338 49.756C16.7945 49.8665 33.8663 49.7718 50.8113 49.8033C50.8113 33.2215 50.8113 16.6404 50.8113 0.0585938C33.8676 0.0585938 16.9222 0.0585938 -0.0216401 0.0585938ZM25.7572 44.0344C24.58 45.1949 22.7223 45.8783 20.4369 45.8783C16.6886 45.8783 14.6074 44.0927 13.279 41.6225C14.5577 40.8241 15.8646 40.0528 17.1967 39.3057C17.74 40.7917 19.5752 42.4622 21.6461 41.4338C22.9588 40.7815 22.8072 38.804 22.8072 36.6577C22.8072 32.2011 22.8072 27.0598 22.8072 23.0393C22.8031 22.9723 22.799 22.9054 22.8552 22.8973C24.4193 22.8973 25.9832 22.8973 27.5469 22.8973C27.5469 26.4791 27.5469 30.5308 27.5469 34.3404C27.5469 38.4878 27.85 41.9724 25.7572 44.0344ZM46.7482 39.9208C46.4819 43.8041 43.2388 45.8661 38.8647 45.8783C34.5768 45.8904 31.8323 44.0271 30.1585 41.1497C31.3619 40.3399 32.7254 39.6876 33.9797 38.9276C34.9834 40.4622 36.7218 41.9371 39.3 41.7173C40.9063 41.5804 42.7708 40.3002 41.7182 38.36C41.2077 37.4195 39.974 36.9417 38.8647 36.4687C35.3445 34.967 31.2145 33.5896 31.6095 28.1936C31.7416 26.391 32.5905 25.1242 33.6896 24.2216C34.8159 23.2966 36.3243 22.6767 38.3327 22.614C41.9801 22.4998 43.981 24.0861 45.3458 26.3025C44.1843 27.1682 42.9048 27.9195 41.6215 28.6666C41.2004 27.4014 39.1675 26.1684 37.462 26.9171C36.6864 27.2572 35.9895 28.2569 36.3981 29.4703C36.7626 30.5525 38.2492 31.1449 39.4451 31.6458C43.0649 33.1608 47.1102 34.6414 46.7482 39.9208Z" fill="white"/>
</svg>
