<svg width="60" height="60" viewBox="0 0 60 60" fill="none" xmlns="http://www.w3.org/2000/svg">
<g clip-path="url(#clip0_12_65)">
<path d="M29.3475 1C20.2924 1 10.6716 3.7417 10.6716 8.82608V32.3043C10.6716 37.4435 20.0657 40.1304 29.3475 40.1304C38.6293 40.1304 48.0234 37.4435 48.0234 32.3043V8.82608C48.0235 3.7417 38.4027 1 29.3475 1ZM45.3554 32.3043C45.3554 34.7721 38.7815 37.5218 29.3475 37.5218C19.9135 37.5218 13.3396 34.7722 13.3396 32.3043V28.647C16.8267 31.0418 23.2111 32.3043 29.3475 32.3043C35.4839 32.3043 41.8683 31.0418 45.3554 28.647V32.3043ZM45.3554 24.4782C45.3554 26.6565 39.2644 29.6957 29.3475 29.6957C19.4306 29.6957 13.3396 26.6566 13.3396 24.4782V20.8209C16.8267 23.2157 23.2111 24.4782 29.3475 24.4782C35.4839 24.4782 41.8683 23.2157 45.3554 20.8209V24.4782ZM45.3554 16.6522C45.3554 18.8304 39.2644 21.8696 29.3475 21.8696C19.4306 21.8696 13.3396 18.8305 13.3396 16.6522V12.9948C16.8267 15.3896 23.2111 16.6522 29.3475 16.6522C35.4839 16.6522 41.8683 15.3896 45.3554 12.9948V16.6522ZM29.3475 14.0435C19.4306 14.0435 13.3396 11.0044 13.3396 8.82608C13.3396 6.64786 19.4306 3.60865 29.3475 3.60865C39.2644 3.60865 45.3554 6.64774 45.3554 8.82608C45.3554 11.0043 39.2644 14.0435 29.3475 14.0435Z" fill="white"/>
<path d="M29.764 48.006L29.3692 47.9408C27.0294 47.5677 26.6798 46.9729 26.6798 46.6521C26.6798 46.133 27.7444 45.3477 29.3505 45.3477C30.9273 45.3477 31.9678 46.0808 32.0212 46.6077C32.0907 47.3251 32.739 47.8781 33.4753 47.7816C34.2091 47.7137 34.7453 47.0772 34.6759 46.3598C34.4732 44.2937 32.1841 42.7363 29.3479 42.7363C26.3544 42.7363 24.0093 44.4555 24.0093 46.6494C24.0093 48.692 25.6661 49.9911 28.9371 50.5129L29.1532 49.2268L29.3319 50.5782C31.549 50.9356 32.0132 51.4782 32.0132 51.8695C32.0132 52.3886 30.9487 53.1739 29.3425 53.1739C27.7658 53.1739 26.7252 52.4382 26.6718 51.9113C26.6024 51.1939 25.9701 50.6591 25.2178 50.7374C24.484 50.8053 23.9477 51.4417 24.0172 52.1592C24.22 54.2251 26.5091 55.7825 29.3452 55.7825C32.3386 55.7825 34.6838 54.0634 34.6838 51.8695C34.6838 49.8294 33.0296 48.5303 29.764 48.006Z" fill="white"/>
<path d="M48.0237 46.6521C48.0237 44.4946 46.2282 42.739 44.0217 42.739H41.3538C39.1473 42.739 37.3518 44.4946 37.3518 46.6521V51.8695C37.3518 54.0269 39.1473 55.7825 41.3538 55.7825H44.0217C44.638 55.7825 45.2143 55.6338 45.7346 55.3912L45.7452 55.4016C46.0067 55.6546 46.3481 55.7825 46.6897 55.7825C47.0312 55.7825 47.3726 55.6547 47.6315 55.4016C48.1518 54.8929 48.1518 54.0659 47.6315 53.5572L47.6209 53.5468C47.8716 53.0381 48.0237 52.4721 48.0237 51.8695V46.6521ZM45.3556 51.3321L44.9634 50.9486C44.4432 50.4399 43.5974 50.4399 43.0771 50.9486C42.5569 51.4573 42.5569 52.2843 43.0771 52.793L43.4667 53.1739H41.3537C40.6173 53.1739 40.0196 52.5895 40.0196 51.8695V46.6521C40.0196 45.9321 40.6173 45.3477 41.3537 45.3477H44.0216C44.758 45.3477 45.3556 45.9321 45.3556 46.6521V51.3321Z" fill="white"/>
<path d="M57.3615 53.1739H53.3595V44.0434C53.3595 43.3234 52.7618 42.739 52.0254 42.739C51.2891 42.739 50.6914 43.3234 50.6914 44.0434V54.4781C50.6914 55.1981 51.2891 55.7825 52.0254 55.7825H57.3615C58.0978 55.7825 58.6955 55.1981 58.6955 54.4781C58.6955 53.7581 58.0978 53.1739 57.3615 53.1739Z" fill="white"/>
<path d="M20.6073 48.0921C19.9456 47.7712 19.1479 48.032 18.817 48.6764L17.3417 51.5643L15.8663 48.679C15.5355 48.0347 14.7351 47.7738 14.0761 48.0946C13.4171 48.4181 13.1476 49.2007 13.4784 49.8451L15.8502 54.4807L13.481 59.1112C13.1529 59.7555 13.4196 60.5381 14.0787 60.8617C14.2708 60.9556 14.4735 61 14.6736 61C15.1618 61 15.6315 60.7364 15.8688 60.2774L21.2048 49.8427C21.5331 49.1982 21.2664 48.4156 20.6073 48.0921Z" fill="white"/>
<path d="M9.75946 42.8069C9.21781 42.6269 8.61489 42.8122 8.27072 43.2608L5.33589 47.0852L2.40119 43.2608C2.05702 42.8122 1.4621 42.6269 0.912452 42.8069C0.368182 42.9843 0 43.4825 0 44.0434V54.4782C0 55.1982 0.597671 55.7825 1.33404 55.7825C2.0704 55.7825 2.66795 55.1982 2.66795 54.4782V47.9565L4.26874 50.0435C4.77299 50.7009 5.90155 50.7009 6.40317 50.0435L8.00396 47.9565V54.4782C8.00396 55.1982 8.60163 55.7825 9.338 55.7825C10.0744 55.7825 10.6719 55.1982 10.6719 54.4782V44.0434C10.6719 43.4825 10.3037 42.9843 9.75946 42.8069Z" fill="white"/>
</g>
<defs>
<clipPath id="clip0_12_65">
<rect width="60" height="60" fill="white"/>
</clipPath>
</defs>
</svg>
