<svg width="60" height="60" viewBox="0 0 60 60" fill="none" xmlns="http://www.w3.org/2000/svg">
<g clip-path="url(#clip0_12_36)">
<path d="M52.7129 15.7499L31.4913 3.99991C30.8113 3.68773 30.0692 3.52588 29.318 3.52588C28.5667 3.52588 27.8247 3.68773 27.1447 3.99991L5.92305 15.7499C5.27057 16.1182 4.72718 16.6459 4.34618 17.2814C3.96518 17.9169 3.75965 18.6383 3.74976 19.3749V42.6249C3.75965 43.3615 3.96518 44.0829 4.34618 44.7184C4.72718 45.3539 5.27057 45.8817 5.92305 46.2499L11.5481 49.3749C13.0175 50.2239 14.6995 50.6567 16.406 50.6249C20.3691 50.6249 22.6702 48.2499 22.6702 44.2499V21.3749C22.6702 21.2092 22.6029 21.0502 22.483 20.933C22.3631 20.8158 22.2006 20.7499 22.031 20.7499H19.3464C19.1768 20.7499 19.0143 20.8158 18.8944 20.933C18.7745 21.0502 18.7072 21.2092 18.7072 21.3749V44.2499C18.7072 46.1249 16.7896 47.8749 13.7214 46.3749L7.84067 43.1249C7.76128 43.0667 7.69685 42.9912 7.65247 42.9044C7.60809 42.8176 7.58499 42.7219 7.58499 42.6249V19.3749C7.59379 19.1439 7.68414 18.9231 7.84067 18.7499L28.9345 7.12491H29.7015L50.7953 18.7499C50.9518 18.9231 51.0422 19.1439 51.051 19.3749V42.6249C51.051 42.7219 51.0279 42.8176 50.9835 42.9044C50.9391 42.9912 50.8747 43.0667 50.7953 43.1249L29.7015 54.7499C29.5849 54.8157 29.4526 54.8504 29.318 54.8504C29.1833 54.8504 29.0511 54.8157 28.9345 54.7499L23.5651 51.7499C23.4948 51.6884 23.4038 51.6544 23.3094 51.6544C23.2151 51.6544 23.1241 51.6884 23.0538 51.7499L19.8577 53.1249C19.4742 53.2499 18.9629 53.3749 19.9856 53.9999L27.1447 57.8749C27.7904 58.289 28.5458 58.5095 29.318 58.5095C30.0902 58.5095 30.8456 58.289 31.4913 57.8749L52.7129 46.2499C53.3654 45.8817 53.9088 45.3539 54.2898 44.7184C54.6708 44.0829 54.8763 43.3615 54.8862 42.6249V19.3749C54.8763 18.6383 54.6708 17.9169 54.2898 17.2814C53.9088 16.6459 53.3654 16.1182 52.7129 15.7499Z" fill="white"/>
<path d="M35.8378 38.875C30.2127 38.875 29.0622 37.625 28.5508 35C28.5508 34.8674 28.4969 34.7402 28.401 34.6464C28.3051 34.5527 28.1751 34.5 28.0394 34.5H25.2269C25.0913 34.5 24.9613 34.5527 24.8654 34.6464C24.7695 34.7402 24.7156 34.8674 24.7156 35C24.7156 38.375 26.6332 42.5 35.8378 42.5C42.4855 42.5 46.3207 40 46.3207 35.625C46.3207 31.25 43.2525 30 36.7326 29.25C30.2127 28.5 29.5735 28 29.5735 26.5C29.5735 25 30.0849 23.75 34.9429 23.75C39.8008 23.75 40.9514 24.625 41.5906 27.375C41.6205 27.5183 41.7008 27.6468 41.8176 27.7382C41.9344 27.8295 42.0803 27.8779 42.2298 27.875H44.9145L45.4258 27.625C45.4721 27.5743 45.5073 27.5149 45.5293 27.4504C45.5512 27.3859 45.5596 27.3177 45.5537 27.25C45.1702 22.375 41.7184 20.125 34.9429 20.125C28.1673 20.125 25.3548 22.625 25.3548 26.625C25.3548 30.625 28.9343 32.25 34.6872 32.875C40.44 33.5 42.2298 34.375 42.2298 35.75C42.2298 37.125 40.3122 38.875 35.8378 38.875Z" fill="white"/>
</g>
<defs>
<clipPath id="clip0_12_36">
<rect width="60" height="60" fill="white"/>
</clipPath>
</defs>
</svg>
