<svg width="66" height="65" viewBox="0 0 66 65" fill="none" xmlns="http://www.w3.org/2000/svg">
<path d="M51.6984 28.4374C52.1771 28.9598 52.2907 29.8569 52.0404 31.1275C51.7788 32.451 51.2753 33.3952 50.5292 33.9611C49.7824 34.5271 48.6469 34.8101 47.1219 34.8101H44.8211L46.2335 27.6537H48.8249C50.2622 27.6537 51.2196 27.9151 51.6984 28.4374ZM19.3042 27.6537H16.7128L15.3003 34.8101H17.601C19.1256 34.8101 20.2615 34.5271 21.0082 33.9611C21.7545 33.3952 22.2579 32.4509 22.5194 31.1275C22.7697 29.8567 22.656 28.9598 22.1774 28.4374C21.6988 27.9151 20.7414 27.6537 19.3042 27.6537ZM65.9355 32.4999C65.9355 41.9235 51.1896 49.5628 33 49.5628C14.8104 49.5628 0.0644531 41.9235 0.0644531 32.4999C0.0644531 23.0764 14.8104 15.437 33 15.437C51.1896 15.437 65.9355 23.0764 65.9355 32.4999ZM25.5933 33.6788C25.9852 32.9871 26.264 32.2238 26.429 31.3889C26.8289 29.3619 26.5271 27.7831 25.5236 26.6519C24.5205 25.5208 22.9242 24.9554 20.7365 24.9554H13.4632L10.0888 42.0545H13.8712L14.7681 37.509H18.0081C19.4373 37.509 20.6133 37.3612 21.5365 37.065C22.4596 36.7693 23.2985 36.2737 24.0538 35.5772C24.6874 35.0034 25.2003 34.3709 25.5933 33.6788ZM38.9057 37.509L40.4759 29.5513C40.7955 27.933 40.5557 26.762 39.7577 26.0392C38.9589 25.3171 37.5084 24.9554 35.4047 24.9554H32.0618L32.9591 20.4093H29.2067L25.8317 37.5088H29.5841L31.5172 27.7125H34.5165C35.4765 27.7125 36.1042 27.8689 36.399 28.182C36.6938 28.4952 36.7565 29.0822 36.5866 29.9427L35.0937 37.5088H38.9057V37.509ZM55.0444 26.652C54.0415 25.5209 52.4451 24.9556 50.2575 24.9556H42.984L39.6095 42.0546H43.392L44.2888 37.5091H47.5289C48.958 37.5091 50.1341 37.3613 51.0572 37.0651C51.9803 36.7694 52.8192 36.2738 53.5745 35.5774C54.2087 35.0034 54.7212 34.3711 55.114 33.6789C55.5064 32.9873 55.7846 32.2239 55.9497 31.3891C56.3497 29.3619 56.0479 27.7831 55.0444 26.652Z" fill="white"/>
</svg>
