<svg width="51" height="51" viewBox="0 0 51 51" fill="none" xmlns="http://www.w3.org/2000/svg">
<path d="M24.5607 2.19727C10.9947 2.19727 0 13.1963 0 26.758C0 29.4313 0.427125 32.0068 1.21975 34.4016L1.224 34.3868C1.50373 33.0945 1.88021 31.8252 2.35025 30.5894L2.37363 30.5256C2.55425 30.0539 2.754 29.5864 2.96225 29.1231L3.14075 28.7385C3.31075 28.3751 3.49137 28.016 3.67837 27.6611C3.75487 27.5166 3.82713 27.3721 3.90788 27.2298C3.95038 27.149 4.00138 27.0746 4.04388 26.996C4.24363 26.6433 4.44763 26.2905 4.66013 25.9484L4.8195 25.7061C5.08512 25.2918 5.3635 24.8859 5.65462 24.4885L5.729 24.3823C6.035 23.9721 6.35588 23.5748 6.68738 23.1859L6.89988 22.9351C7.22925 22.559 7.56925 22.1914 7.922 21.8365L8.13237 21.6304C8.50618 21.2603 8.89318 20.9038 9.29263 20.5615C10.8651 15.2915 15.6783 11.4559 21.3754 11.4559C23.6682 11.4559 25.9484 12.1146 27.9013 13.311C29.9093 14.5498 31.5354 16.3201 32.5996 18.4259L32.6145 18.4578L32.6995 18.615V18.6214L32.708 18.6256C33.8997 19.3615 35.0152 20.2143 36.0379 21.1714C36.1229 21.25 36.21 21.3223 36.2929 21.403C36.2971 21.403 36.3056 21.4136 36.3078 21.4158L36.3035 21.403L36.3014 21.3945V21.3881L36.3906 21.2096C37.1917 16.1436 39.4294 12.4929 42.0644 12.4929C44.0491 12.4929 45.8086 14.5648 46.9009 17.7544L46.9115 17.7884L46.9136 17.7926C47.2217 18.1284 47.5235 18.496 47.8146 18.8998L47.8295 18.921L47.8741 19.0634L47.8316 18.8976C44.5549 9.18852 35.3727 2.20152 24.5586 2.20152L24.5607 2.19727ZM21.0949 11.6386C16.1203 11.73 11.3475 15.1555 9.71975 19.9006L9.69425 19.9729C10.5745 19.2667 11.5088 18.6308 12.4886 18.071C18.4514 14.552 26.2565 14.5733 32.2044 18.105C30.3025 14.5924 26.6135 12.1146 22.6419 11.7215C22.1288 11.6573 21.6119 11.6296 21.0949 11.6386ZM41.9921 12.7011C41.7104 12.7079 41.4312 12.7559 41.1634 12.8435C38.4753 14.0378 37.5105 17.2486 36.8475 19.8624L36.8135 20.0154C37.5891 18.6979 38.5305 17.4335 39.78 16.5261C41.5544 15.0663 44.2531 15.1343 45.9765 16.6388C46.631 17.3315 46.2761 16.6558 46.0424 16.1713C45.3156 14.5775 43.8643 12.6586 41.9921 12.699V12.7011ZM26.2438 17.6694L23.97 24.6181L23.9657 24.6288L23.953 24.633L14.3948 26.996H14.3756L23.8446 29.3059C24.0677 29.5396 24.327 29.7415 24.6096 29.9009H24.6139C24.7031 29.9519 24.7945 29.9965 24.888 30.039L24.9093 30.0496C24.9964 30.0879 25.0856 30.1198 25.177 30.1495L25.2216 30.1665C25.3066 30.1941 25.3916 30.2154 25.4766 30.2345L25.5468 30.2515C25.7693 30.2964 25.9955 30.3198 26.2225 30.3216C26.8713 30.3235 27.5062 30.1331 28.047 29.7746C28.5878 29.4161 29.0103 28.9055 29.2613 28.3071C29.4313 27.9119 29.5226 27.4784 29.5226 27.0236V27.0003L29.5205 26.9748C29.5184 26.86 29.512 26.7474 29.4993 26.6348L29.4971 26.6305C29.4843 26.5213 29.4659 26.4127 29.4419 26.3054L29.4398 26.2969C29.3925 26.0866 29.3241 25.8815 29.2358 25.6849V25.6785C29.061 25.2857 28.8096 24.9317 28.4963 24.6373V24.6309L26.2438 17.6694ZM32.9333 18.9996C33.0353 21.1416 33.0098 23.3474 32.7207 25.4958C32.3595 29.784 30.192 33.5665 28.5302 37.4298L28.4665 37.5998L28.3921 37.7825C31.6009 34.5483 35.1284 31.3225 36.8262 26.9833C37.6401 25.6318 37.077 24.1315 36.5819 22.7843C36.2206 20.9206 34.3102 20.0685 32.9333 18.9996ZM46.0488 20.2151L44.7993 25.9271C44.7577 26.0667 44.7244 26.2087 44.6994 26.3521C44.6951 26.3946 44.6845 26.4371 44.6781 26.4796C44.6568 26.636 44.6455 26.7936 44.6441 26.9514L44.6399 27.0173H44.6463C44.6463 28.3518 45.2774 29.4313 46.0551 29.4334C46.1897 29.4318 46.3221 29.3991 46.4419 29.3378L46.4992 29.3059C46.5514 29.2765 46.6011 29.2432 46.648 29.206C46.6756 29.1848 46.699 29.1593 46.7245 29.1359C46.8383 29.0316 46.9363 28.9113 47.0156 28.7789L47.0794 28.6641C47.1199 28.5895 47.1568 28.5129 47.1899 28.4346L47.226 28.3496C47.2685 28.237 47.3068 28.1201 47.3386 27.9969L47.3429 27.9926L47.345 27.9863L48.2035 27.0279L47.3386 26.0589V26.061L47.2961 25.9271L46.0488 20.2151ZM36.7391 22.0341C38.2054 25.6806 38.5454 29.9115 36.9325 33.5729C35.8912 36.4799 33.5601 38.8068 32.9502 41.871C34.5015 42.1154 36.0697 42.245 37.6465 42.2663C42.2492 42.3279 46.852 41.3738 51 39.3656C46.665 33.269 42.2429 27.1363 36.7391 22.0341ZM26.2246 24.1103C26.5532 24.1103 26.8683 24.2408 27.1006 24.4731C27.333 24.7055 27.4635 25.0206 27.4635 25.3491C27.4635 25.6777 27.333 25.9928 27.1006 26.2252C26.8683 26.4575 26.5532 26.588 26.2246 26.588C25.8961 26.588 25.5809 26.4575 25.3486 26.2252C25.1163 25.9928 24.9858 25.6777 24.9858 25.3491C24.9858 25.0206 25.1163 24.7055 25.3486 24.4731C25.5809 24.2408 25.8961 24.1103 26.2246 24.1103ZM46.0976 24.8965C46.3909 24.8965 46.6267 25.3003 46.6267 25.8018C46.6267 26.3033 46.3909 26.707 46.0976 26.707C45.8065 26.707 45.5706 26.3033 45.5706 25.8018C45.5706 25.3024 45.8044 24.8965 46.0976 24.8965ZM37.5041 25.2875C37.4701 25.5255 37.434 25.7316 37.3979 25.9038L37.3851 25.9526C37.3639 26.0589 37.3384 26.1524 37.315 26.2246C36.295 29.2358 34.6056 31.5796 32.3 34.0808C31.9876 34.4208 31.6604 34.7608 31.3246 35.1093C30.4898 35.975 29.6426 36.8286 28.7831 37.6699C28.5451 37.9036 28.2327 38.2245 27.88 38.5964C27.6611 39.2063 27.4125 39.8926 27.2043 40.6151C27.1108 40.5811 27.0215 40.5493 26.9259 40.511C22.4464 38.7791 19.448 36.465 19.448 36.465C19.448 36.465 21.7558 39.4698 25.6424 42.2875C26.0185 42.5616 26.3883 42.7975 26.7516 43.0079C26.5922 45.5451 27.7121 47.9804 32.7654 48.7071C33.6309 48.8243 34.5079 48.83 35.3749 48.7241L35.3536 48.6625C35.3514 48.6552 35.3486 48.6481 35.3451 48.6413C35.3451 48.6413 34.9902 48.3586 34.5397 47.8401C34.0392 47.2658 33.6215 46.6242 33.2988 45.934C33.0294 45.3514 32.8393 44.7353 32.7335 44.1023C32.6233 43.4185 32.619 42.7218 32.7207 42.0368C32.7569 41.7818 32.8058 41.5246 32.8737 41.259C33.0714 40.4643 33.4156 39.6185 33.9511 38.726L33.9554 38.7196L34.4675 37.8611C36.8114 33.9086 38.2861 30.9018 37.6678 26.299C37.6216 25.9604 37.5685 25.6231 37.5041 25.2875ZM47.4512 26.9429L47.4576 27.0194V27.0406C47.4576 27.0683 47.4512 27.0938 47.4512 27.1214C47.4512 27.0916 47.4576 27.0619 47.4576 27.03C47.4576 27.0003 47.4534 26.9748 47.4512 26.945V26.9429ZM47.4258 27.5273L47.4215 27.5506L47.4172 27.5804L47.4258 27.5273ZM50.3009 40.1243C44.8757 42.5425 38.7409 43.1843 32.8929 42.2641C32.5954 44.6186 33.7089 46.9774 35.4726 48.4904L35.4981 48.5116C41.242 47.5915 46.07 43.9025 50.3009 40.1243Z" fill="white"/>
</svg>
