<svg width="55" height="48" viewBox="0 0 55 48" fill="none" xmlns="http://www.w3.org/2000/svg">
<path d="M27.5128 19.2733C28.4572 19.2734 29.3804 19.5457 30.1663 20.0561C30.9522 20.5664 31.5656 21.292 31.9293 22.1414C32.293 22.9907 32.3907 23.926 32.2102 24.8294C32.0296 25.7328 31.5789 26.564 30.9146 27.2182C30.2504 27.8725 29.4025 28.3206 28.4775 28.5061C27.5525 28.6917 26.5918 28.6064 25.7165 28.261C24.8411 27.9157 24.0902 27.3256 23.5582 26.5651C23.0262 25.8047 22.737 24.9079 22.7269 23.9875C22.7235 23.3717 22.8446 22.7613 23.0833 22.1911C23.322 21.6209 23.6736 21.1022 24.118 20.6644C24.5624 20.2267 25.091 19.8785 25.6734 19.6398C26.2559 19.4011 26.8809 19.2766 27.5128 19.2733ZM15.6631 43.9417C17.2755 44.8896 20.7818 43.4429 24.8767 39.7015C23.508 38.1857 22.2182 36.604 21.0121 34.9623C18.9478 34.737 16.8974 34.404 14.8697 33.9646C13.5644 39.3024 14.0507 42.969 15.6631 43.9417ZM17.4802 29.6246L16.738 28.3525C16.4487 29.0531 16.2009 29.7693 15.9958 30.4976C16.6868 30.6472 17.4546 30.772 18.248 30.8967L17.4802 29.6246ZM34.2182 27.7289L36.2913 23.9875L34.2182 20.2461C33.4504 18.9241 32.6315 17.7518 31.8893 16.5795C30.5072 16.5047 29.0484 16.5047 27.5128 16.5047C25.9772 16.5047 24.5184 16.5047 23.1363 16.5047C22.3941 17.677 21.5752 18.8493 20.8074 20.1713L18.7343 23.9875L20.8074 27.7289C21.5752 29.0509 22.3941 30.2232 23.1363 31.3955C24.5184 31.3955 25.9772 31.3955 27.5128 31.3955C29.0484 31.3955 30.5072 31.3955 31.8893 31.3955C32.6315 30.2232 33.4504 29.0509 34.2182 27.7289ZM27.5128 10.9674C27.0265 11.5162 26.5147 12.0898 26.0028 12.7633H29.0228C28.5109 12.0898 27.9991 11.5162 27.5128 10.9674ZM27.5128 37.0076C27.9991 36.4589 28.5109 35.8852 29.0228 35.2118H26.0028C26.5147 35.8852 27.0265 36.4589 27.5128 37.0076ZM39.3369 4.03333C37.7501 3.0855 34.2182 4.53218 30.1489 8.27359C31.5176 9.78937 32.8074 11.3711 34.0135 13.0127C36.0759 13.2051 38.1263 13.5048 40.1559 13.9107C41.4611 8.57291 40.9749 4.90632 39.3369 3.93355M37.5454 18.2507L38.2876 19.5228C38.5769 18.8222 38.8247 18.106 39.0298 17.3777C38.3388 17.228 37.571 17.1033 36.7776 16.9786L37.5454 18.2507ZM41.2564 0.790767C45.0186 2.88596 45.4281 8.39831 43.8157 14.8335C50.3164 16.7042 55 19.8221 55 24.0125C55 28.2029 50.3164 31.3207 43.8157 33.1914C45.4025 39.6266 44.993 45.139 41.2564 47.2342C37.5198 49.3294 32.4267 46.9349 27.5128 42.3703C22.5989 46.9349 17.5058 49.3294 13.7436 47.2342C9.98139 45.139 9.59749 39.7513 11.1843 33.1914C4.68357 31.3207 0 28.2029 0 24.0125C0 19.8221 4.68357 16.6793 11.1843 14.8086C9.59749 8.37336 10.007 2.86102 13.7436 0.765825C17.4802 -1.32937 22.5989 1.06514 27.5128 5.62966C32.4267 1.06514 37.5198 -1.32937 41.2564 0.765825M40.5142 23.9875C41.4031 25.8237 42.1891 27.7055 42.8688 29.6246C48.2434 28.0532 51.2634 25.8083 51.2634 23.9875C51.2634 22.1667 48.1666 19.9219 42.8688 18.3505C42.1891 20.2696 41.4031 22.1514 40.5142 23.9875ZM14.5114 23.9875C13.6225 22.1514 12.8365 20.2696 12.1568 18.3505C6.78222 19.9219 3.76222 22.1667 3.76222 23.9875C3.76222 25.8083 6.859 28.0532 12.1568 29.6246C12.8365 27.7055 13.6225 25.8237 14.5114 23.9875ZM37.5454 29.6246L36.7776 30.8967C37.571 30.8967 38.3388 30.6472 39.0298 30.4976C38.8247 29.7693 38.5769 29.0531 38.2876 28.3525L37.5454 29.6246ZM30.0721 39.7015C34.1415 43.4429 37.7501 44.8896 39.2601 43.9417C40.7701 42.9939 41.3844 39.4021 40.0791 33.9646C38.0495 34.3705 35.9991 34.6702 33.9367 34.8626C32.7334 36.5382 31.4435 38.1533 30.0721 39.7015ZM17.4802 18.3505L18.248 17.0784C17.4546 17.0784 16.6868 17.3278 15.9958 17.4775C16.2009 18.2058 16.4487 18.922 16.738 19.6225L17.4802 18.3505ZM24.9535 8.27359C20.8074 4.53218 17.2755 3.0855 15.6631 4.03333C14.0507 4.98115 13.5644 8.57291 14.8697 14.0104C16.8993 13.6046 18.9497 13.3048 21.0121 13.1125C22.2403 11.4351 23.5559 9.81999 24.9535 8.27359Z" fill="white"/>
</svg>
