<svg width="56" height="55" viewBox="0 0 56 55" fill="none" xmlns="http://www.w3.org/2000/svg">
<g clip-path="url(#clip0_12_30)">
<path d="M27.999 0.0537109C12.566 0.0537109 0.0546875 12.3408 0.0546875 27.4984C0.0546875 42.6578 12.566 54.9463 27.999 54.9463C43.4339 54.9463 55.9453 42.6578 55.9453 27.4984C55.9453 12.3408 43.4339 0.0537109 27.999 0.0537109ZM43.0706 15.9385C41.7767 15.9832 40.8838 15.2243 40.8419 14.0703C40.8287 13.647 40.9393 13.2788 41.2354 12.8455C41.5233 12.2912 41.5856 12.2269 41.5784 11.9847C41.5516 11.2588 40.434 11.2315 40.1284 11.2454C35.9334 11.382 34.8276 16.9417 33.9316 21.4633L33.4931 23.8473C35.9084 24.1944 37.623 23.7666 38.5801 23.1585C39.9265 22.3005 38.2025 21.4178 38.419 20.4412C38.6409 19.4459 39.562 18.9653 40.294 18.9461C41.3196 18.9198 42.0518 19.9654 42.0287 21.0255C41.9927 22.7788 39.6245 25.187 34.8872 25.0883C34.3105 25.0757 33.7796 25.0351 33.2853 24.9761L32.3911 29.8211C31.5914 33.4877 30.5291 38.4997 26.726 42.8721C23.459 46.6887 20.144 47.2797 18.6599 47.3292C15.8818 47.4231 14.0411 45.9676 13.9742 44.0263C13.9105 42.1457 15.6029 41.1183 16.7141 41.0842C18.1961 41.036 19.2221 42.0911 19.2617 43.307C19.2994 44.3344 18.7528 44.6561 18.3898 44.8499C18.1487 45.0416 17.7852 45.2372 17.7989 45.6603C17.8076 45.8408 18.005 46.2579 18.6216 46.2383C19.7964 46.199 20.5766 45.6285 21.1211 45.2467C23.8269 43.0336 24.868 39.1742 26.2316 32.1492L26.5172 30.4478C26.983 28.1628 27.498 25.6166 28.2848 23.0784C26.378 21.6682 25.2341 19.9202 22.6693 19.2362C20.9109 18.7668 19.8383 19.1652 19.0851 20.1015C18.1923 21.2102 18.4884 22.6531 19.3507 23.4992L20.7758 25.0466C22.5214 27.0291 23.4779 28.5714 23.1173 30.6447C22.5473 33.9583 18.5289 36.4982 13.779 35.0643C9.72409 33.8377 8.96634 31.0181 9.45383 29.4636C9.88323 28.097 10.9889 27.8389 12.0706 28.1635C13.2286 28.5164 13.6829 29.8991 13.3514 30.959C13.3136 31.0725 13.2545 31.2646 13.134 31.5174C12.999 31.8105 12.7506 32.0673 12.6423 32.4081C12.3821 33.2426 13.5457 33.8349 14.3562 34.0797C16.1705 34.6282 17.9412 33.6965 18.3898 32.2545C18.8068 30.9291 17.9536 30.0045 17.5996 29.6503L15.8817 27.8438C15.0962 26.9834 13.3682 24.5877 14.2102 21.8964C14.5354 20.8592 15.2208 19.7585 16.2138 19.0295C18.3115 17.4946 20.5925 17.2417 22.7649 17.856C25.5744 18.6494 26.9253 20.475 28.6764 21.8839C29.6556 19.062 31.0143 16.2988 33.0565 13.9666C34.9013 11.842 37.3792 10.3039 40.2181 10.2084C43.0548 10.1165 45.1989 11.3792 45.2694 13.3778C45.298 14.2286 44.8004 15.8819 43.0706 15.9385Z" fill="white"/>
</g>
<defs>
<clipPath id="clip0_12_30">
<rect width="56" height="55" fill="white"/>
</clipPath>
</defs>
</svg>
