<svg width="56" height="55" viewBox="0 0 56 55" fill="none" xmlns="http://www.w3.org/2000/svg">
<g clip-path="url(#clip0_12_24)">
<path d="M28.0002 9.16675C24.1699 9.16675 20.8769 10.1821 18.292 12.3581C15.7258 14.5185 14.047 17.6635 13.1157 21.5835C12.9124 22.439 13.3557 23.3159 14.1724 23.6741C14.9892 24.0323 15.9498 23.7711 16.4627 23.0514C17.6448 21.3929 18.8251 20.3963 19.9591 19.8849C21.0574 19.3896 22.2412 19.2892 23.5972 19.646C24.9656 20.006 26.0249 21.0603 27.688 22.8367L27.7417 22.8941C28.9953 24.2333 30.5246 25.8669 32.6162 27.1344C34.7866 28.4497 37.4875 29.3334 41.067 29.3334C44.897 29.3334 48.1902 28.318 50.7752 26.142C53.3411 23.9817 55.02 20.8366 55.9514 16.9167C56.1545 16.0611 55.7114 15.1843 54.8945 14.8261C54.0781 14.4679 53.1171 14.729 52.6041 15.4487C51.4222 17.1072 50.2421 18.1038 49.1079 18.6152C48.0095 19.1105 46.8257 19.2109 45.4697 18.8542C44.1015 18.4942 43.042 17.4398 41.3791 15.6634L41.3254 15.606C40.0717 14.2668 38.5425 12.6331 36.4508 11.3657C34.2805 10.0505 31.5796 9.16675 28.0002 9.16675Z" fill="white"/>
<path d="M14.9336 25.6667C11.1033 25.6667 7.81024 26.6821 5.2254 28.8581C2.65914 31.0185 0.980343 34.1634 0.049043 38.0836C-0.154208 38.939 0.28902 39.8157 1.10576 40.174C1.9225 40.5322 2.88316 40.2711 3.39611 39.5514C4.57819 37.8929 5.75844 36.8963 6.89248 36.3849C7.99075 35.8896 9.17455 35.7892 10.5306 36.146C11.899 36.506 12.9583 37.5604 14.6213 39.3369L14.6751 39.3941C15.9286 40.7331 17.458 42.367 19.5496 43.6346C21.72 44.9498 24.4208 45.8335 28.0002 45.8335C31.8305 45.8335 35.1235 44.8182 37.7085 42.642C40.2744 40.4816 41.9533 37.3367 42.8848 33.4167C43.0879 32.5611 42.6447 31.6843 41.8279 31.326C41.0114 30.9678 40.0504 31.229 39.5375 31.9487C38.3555 33.6072 37.1753 34.6038 36.0413 35.1152C34.943 35.6105 33.7592 35.7109 32.4032 35.3542C31.0348 34.9942 29.9755 33.9398 28.3124 32.1634L28.2587 32.106C27.0051 30.7668 25.4758 29.1331 23.3842 27.8656C21.2138 26.5505 18.513 25.6667 14.9336 25.6667Z" fill="white"/>
</g>
<defs>
<clipPath id="clip0_12_24">
<rect width="56" height="55" fill="white"/>
</clipPath>
</defs>
</svg>
