<svg width="52" height="52" viewBox="0 0 52 52" fill="none" xmlns="http://www.w3.org/2000/svg">
<g clip-path="url(#clip0_14_105)">
<path fill-rule="evenodd" clip-rule="evenodd" d="M48.815 13.5256C48.9268 14.355 48.9892 15.2411 48.9892 16.1979C48.9892 20.7687 48.5654 21.0263 39.0702 48.4745C46.8 43.9661 52 35.5914 52 26C52 21.4786 50.8456 17.228 48.815 13.5256ZM26.4576 28.275L18.655 50.9412C23.92 52.4908 29.4996 52.333 34.6346 50.5286C34.5644 50.4168 34.502 50.2967 34.45 50.1693L26.4576 28.275ZM43.5526 24.6873C43.5526 21.4737 42.3982 19.2473 41.4076 17.5157C40.092 15.3733 38.8544 13.5618 38.8544 11.4194C38.8544 9.03003 40.6692 6.80469 43.2224 6.80469C43.3368 6.80469 43.446 6.8198 43.5578 6.825C38.9324 2.587 32.7704 0 26 0C16.9182 0 8.92581 4.65877 4.27701 11.7178C5.93321 11.7698 8.15619 11.7912 12.8804 11.422C14.2818 11.3388 14.4456 13.3973 13.0468 13.5611C13.0468 13.5611 11.6376 13.728 10.0698 13.8112L19.539 41.9745L25.2278 24.9082L21.177 13.8087C19.7782 13.7281 18.4522 13.5611 18.4522 13.5611C17.0508 13.4779 17.2146 11.3362 18.616 11.4194C23.9902 11.8328 26.741 11.864 32.3934 11.4194C33.7948 11.3362 33.9612 13.3947 32.5598 13.5611C32.5598 13.5611 31.148 13.7281 29.5828 13.8087L38.9792 41.7587C42.6894 29.3619 43.5526 27.2873 43.5526 24.6873ZM0 26C0 36.2908 5.98 45.1854 14.6536 49.4L2.25159 15.4185C0.808593 18.6529 0 22.23 0 26Z" fill="white"/>
</g>
<defs>
<clipPath id="clip0_14_105">
<rect width="52" height="52" fill="white"/>
</clipPath>
</defs>
</svg>
